<?xml version="1.0" encoding="UTF-8" standalone="no"?>
<!-- Created with Inkscape (http://www.inkscape.org/) -->

<svg
   width="500mm"
   height="500mm"
   viewBox="0 0 500 500"
   version="1.1"
   id="svg1"
   xmlns="http://www.w3.org/2000/svg"
   xmlns:svg="http://www.w3.org/2000/svg">
  <defs
     id="defs1" />
  <g
     id="layer1">
    <path
       style="fill:#000000;stroke-width:4;stroke-linecap:round;stroke-linejoin:round;paint-order:stroke fill markers"
       d="m 91.010211,160.77362 -13.649362,35.38723 67.235751,14.66042 69.7634,-2.02212 84.92937,-14.15489 66.22467,-21.23234 57.12511,-21.23232 -5.05532,-26.79321 -60.66382,16.68255 -92.00682,27.29872 -114.25021,13.14383 z"
       id="path151" />
    <path
       style="fill:#000000;stroke-width:4;stroke-linecap:round;stroke-linejoin:round;paint-order:stroke fill markers"
       d="m 79.87404,203.22383 55.60851,11.1217 6.57192,31.84851 -55.102982,-11.62723 z"
       id="path152" />
    <path
       style="fill:#000000;stroke-width:4;stroke-linecap:round;stroke-linejoin:round;paint-order:stroke fill markers"
       d="m 141.0434,216.87319 72.7966,-2.52766 6.57191,26.79319 -72.79659,2.02213 z"
       id="path153" />
    <path
       style="fill:#000000;stroke-width:4;stroke-linecap:round;stroke-linejoin:round;paint-order:stroke fill markers"
       d="m 221.42298,217.37872 72.79659,-12.13277 1.5166,23.76001 -66.73021,10.61616 z"
       id="path154" />
    <path
       style="fill:#000000;stroke-width:4;stroke-linecap:round;stroke-linejoin:round;paint-order:stroke fill markers"
       d="m 299.78043,203.22383 2.02213,22.2434 c 0,0 63.19147,-20.72681 57.1251,-20.72681 -6.06639,0 -5.05531,-14.15489 -5.05531,-14.15489 z"
       id="path155" />
    <path
       style="fill:#000000;stroke-width:4;stroke-linecap:round;stroke-linejoin:round;paint-order:stroke fill markers"
       d="m 357.41107,187.55234 7.58296,15.67149 38.92597,-17.69362 -5.56085,-14.66042 z"
       id="path156" />
    <path
       style="fill:#000000;stroke-width:4;stroke-linecap:round;stroke-linejoin:round;paint-order:stroke fill markers"
       d="m 403.92,170.36425 6.06637,14.1549 20.22128,-13.14383 -6.5719,-14.66043 z"
       id="path157" />
    <path
       style="fill:#000000;stroke-width:4;stroke-linecap:round;stroke-linejoin:round;paint-order:stroke fill markers"
       d="M 236.58893,177.4417 C 224.9617,61.674893 246.69957,54.091913 246.69957,54.091913 L 261.36,62.685956 c 0,0 -9.09958,43.475744 -9.09958,55.102974 0,11.62724 5.05532,50.5532 5.05532,50.5532 l 2.02213,4.04425 z"
       id="path158" />
    <path
       style="fill:#000000;stroke-width:4;stroke-linecap:round;stroke-linejoin:round;paint-order:stroke fill markers"
       d="m 237.09447,57.630639 -7.58298,22.748935 -2.02213,26.793186 2.52766,21.23235 -34.8817,-18.70469 -4.04426,-18.704678 V 75.829786 l 8.08851,-21.232341 z"
       id="path159" />
    <path
       style="fill:#000000;stroke-width:4;stroke-linecap:round;stroke-linejoin:round;paint-order:stroke fill markers"
       d="m 195.64085,115.26127 32.35404,17.18809 -0.50553,12.6383 2.02213,13.64936 2.02213,6.06638 L 208.27915,152.1651 190.08,138.51574 Z"
       id="path160" />
    <path
       style="fill:#000000;stroke-width:4;stroke-linecap:round;stroke-linejoin:round;paint-order:stroke fill markers"
       d="m 402.40341,134.47149 15.16594,-21.23234 15.16597,24.26553 -14.66043,16.17702 z"
       id="path161" />
    <path
       style="fill:#000000;stroke-width:4;stroke-linecap:round;stroke-linejoin:round;paint-order:stroke fill markers"
       d="m 109.19489,167.83659 33.87064,-0.50553 87.45702,-22.2434 41.95915,-6.57192 42.97021,-2.52766 h 30.83745 l 13.14384,1.01107 -23.76001,7.58298 -18.19915,3.53872 -22.24341,5.05532 -29.82638,4.04425 -34.8817,1.5166 -12.13277,5.05532 -29.32085,5.05532 -47.01446,6.57191 -18.19915,0.50553 -18.70468,-9.09957 z"
       id="path162" />
    <path
       style="fill:#000000;stroke-width:4;stroke-linecap:round;stroke-linejoin:round;paint-order:stroke fill markers"
       d="m 59.147233,267.93192 c 26.287658,-4.5498 32.354043,-2.52767 32.354043,-2.52767 0,0 7.582977,11.62722 7.077446,22.24342 -0.505532,10.61617 -2.022129,20.22125 4.549788,26.28765 6.57191,6.06639 21.23234,-4.04426 25.2766,-2.02213 4.04425,2.02213 1.51659,-23.76001 -0.50554,-28.81532 -2.02212,-5.05532 -11.1217,-19.71575 -5.56085,-22.24341 5.56085,-2.52766 24.77106,-10.61617 28.81532,-3.03319 4.04425,7.58298 10.11064,42.4647 9.60511,44.99234 -0.50554,2.52767 2.52766,36.90385 4.54978,38.42044 2.02213,1.51659 2.02213,8.08849 -2.52766,8.08849 -4.54978,0 -16.17702,9.09958 -26.28765,4.54981 -10.11064,-4.54981 -2.52766,-22.74896 -7.58298,-22.74896 -5.05532,0 -24.26554,2.02213 -24.26554,6.06639 0,4.04427 4.04426,23.25447 -3.53872,24.26552 -7.582978,1.01108 -14.154892,2.02214 -18.199146,3.03321 -4.044257,1.01106 -7.582979,9.60509 -10.616171,5.05532 -3.033191,-4.5498 0.505532,-12.6383 -5.055319,-27.29873 -5.560851,-14.66043 -2.022129,-9.60512 -1.516597,-19.21021 0.505534,-9.60511 -6.571914,-39.43148 -5.055317,-34.37617 1.516594,5.05531 -1.516597,-20.7268 -1.516597,-20.7268 z"
       id="path163" />
    <path
       id="path164"
       style="fill:#000000;stroke-width:4.139;stroke-linecap:round;stroke-linejoin:round;paint-order:stroke fill markers"
       d="m 166.74279,249.18904 c -0.72102,-0.005 -1.37069,0.008 -1.93941,0.0409 -9.09957,0.54128 -3.5388,9.74313 -3.5388,9.74313 0,0 1.01111,11.36685 5.5609,16.23837 4.54979,4.87148 4.55003,15.6967 1.0113,15.6967 -3.53872,0 -2.02215,20.02731 2.0221,24.35754 -23.43198,42.20786 48.69737,22.43491 57.1252,11.36708 1.60352,-5.57993 -2.81779,-15.22102 -1.95027,-16.82377 -0.01,-0.0306 -0.0143,-0.0628 -0.0139,-0.0968 -3.86126,-2.09006 -10.27206,-5.21637 -13.20178,-3.64794 -5.05532,2.70637 -22.74931,14.76448 -19.71611,1.62395 0.85625,-3.70948 -6.06639,-18.40375 0,-17.32118 6.06638,1.08254 26.28774,3.24753 30.332,0.54113 4.04426,-2.70636 8.59414,-13.53189 1.5167,-14.61443 -7.07745,-1.08254 -32.8596,0.54161 -34.37619,-3.24734 -1.5166,-3.78893 -10.11064,-10.28426 0,-10.28426 10.11063,0 24.77123,9.74259 33.8708,-0.54169 9.09958,-10.28428 2.52739,-12.99052 -8.59431,-10.8254 -10.4266,2.0298 -37.2928,-2.12474 -48.10818,-2.20601 z" />
    <path
       style="fill:#000000;stroke-width:4;stroke-linecap:round;stroke-linejoin:round;paint-order:stroke fill markers"
       d="m 233.05021,249.73276 c 0,0 -2.02213,13.14383 -0.50553,17.69362 1.51659,4.54978 5.05532,23.76001 2.02213,26.28765 -3.03319,2.52767 -6.06639,19.21021 -2.02213,24.26555 4.04425,5.05531 26.79319,5.05531 30.33191,4.54977 3.53871,-0.50553 15.6715,-6.5719 20.22128,-5.05531 4.5498,1.51659 8.59403,-2.02213 10.61616,-6.06639 2.02214,-4.04424 4.54981,-17.18808 0.50554,-16.17702 -4.04426,1.01107 -14.66043,3.03321 -20.22128,2.02213 -5.56085,-1.01106 -15.16595,1.51659 -19.71574,3.53872 -4.54979,2.02213 4.04425,-10.11063 1.51659,-14.15489 -2.52765,-4.04426 -2.02212,-11.12171 -1.01106,-19.71575 1.01106,-8.59404 4.54979,-15.16595 -1.51659,-18.70467 -6.06639,-3.53873 -20.22128,1.51659 -20.22128,1.51659 z"
       id="path165" />
    <path
       style="fill:#000000;stroke-width:4;stroke-linecap:round;stroke-linejoin:round;paint-order:stroke fill markers"
       d="m 298.76935,315.95745 c 0,0 5.05534,-20.22128 3.03321,-28.81532 -2.02213,-8.59404 -16.17702,-14.66043 -16.68256,-26.28767 -0.50554,-11.62723 -2.02213,-19.71574 6.06639,-20.22127 8.0885,-0.50553 17.69361,-8.59404 18.70467,-1.01107 1.01107,7.58298 -1.5166,8.08851 6.5719,15.67149 8.08853,7.58298 7.07747,12.63831 16.17702,12.63831 9.09958,0 8.59407,0.50552 9.60512,-12.63831 1.01108,-13.14383 -6.06639,-18.19914 0,-21.73787 6.06639,-3.53872 20.22128,-12.13276 19.71574,-4.04425 -0.50554,8.08851 8.59404,23.76 6.0664,32.35404 -2.52767,8.59404 0.50551,-3.53873 1.51659,15.16594 1.01105,18.7047 9.60511,23.76001 -1.51659,23.76001 -11.12171,0 -16.17703,11.12171 -16.17703,0 0,-11.12171 3.53873,-10.11063 0,-19.21021 -3.53872,-9.09957 -3.03321,-7.07744 -7.58298,-2.52767 -4.54977,4.54981 0,7.07745 -7.58298,6.57194 -7.58299,-0.50554 -11.62722,-14.15489 -11.12171,-0.50554 0.50554,13.64935 0.50554,26.79319 4.04426,28.30978 3.53872,1.51659 6.57191,4.04426 -2.02213,5.05531 -8.59404,1.01108 -23.25447,1.01108 -28.81532,-2.52764 z"
       id="path166" />
    <path
       style="fill:#000000;stroke-width:4;stroke-linecap:round;stroke-linejoin:round;paint-order:stroke fill markers"
       d="m 369.54383,225.46723 c 0,0 12.13276,13.14383 7.58298,15.67149 -4.5498,2.52766 -3.53872,8.59404 -2.02213,15.16596 14.77679,9.56832 -1.43482,27.94247 3.03319,37.40935 2.02213,3.03319 14.66043,8.59404 16.68256,5.05532 8.7916,-15.38526 48.63809,-1.6146 37.05108,-20.38671 -4.87446,-7.89712 -24.41278,2.6931 -26.94046,-2.86776 -2.52764,-5.56085 -0.50553,-11.12169 -4.04426,-14.66042 -3.53872,-3.53872 8.59407,-6.57191 12.6383,-6.57191 4.04426,0 13.14384,-2.02213 9.09958,-6.06638 -4.04424,-4.04426 0.50554,-12.13277 -4.54978,-10.11064 -5.05531,2.02213 -14.66043,4.54979 -18.19915,3.03319 -3.53872,-1.5166 1.51659,-8.59404 -2.52767,-13.14383 -4.04424,-4.54979 5.56085,0 10.61617,-4.54979 5.05534,-4.54978 12.6383,0.50554 9.60511,-6.06638 -3.03318,-6.57191 3.03319,-10.61617 -5.05531,-9.09957 -8.08852,1.51659 -15.67148,6.57191 -20.22128,6.57191 -4.54978,0 -23.76001,9.09958 -22.74893,10.61617 z"
       id="path167" />
    <path
       style="fill:#000000;stroke-width:4;stroke-linecap:round;stroke-linejoin:round;paint-order:stroke fill markers"
       d="m 425.15234,205.75149 c 4.54977,16.68255 0.50554,24.77106 0.50554,24.77106 0,0 1.51659,8.08851 7.58296,13.64936 6.06639,5.56085 -0.50552,16.68255 2.02213,25.2766 2.52767,8.59404 7.58298,14.1549 11.1217,8.59404 3.53873,-5.56085 4.04427,-9.60511 10.11063,-8.59404 6.0664,1.01106 3.03321,-0.50553 2.52767,-11.62724 -0.50554,-11.1217 2.52767,-21.23234 -2.52767,-22.74893 -5.05531,-1.5166 -14.6604,-0.50553 -4.54977,-7.07745 10.11063,-6.57191 18.70466,-16.68255 22.74893,-1.01106 4.04426,15.67149 -0.50552,23.25446 1.01107,28.30978 1.5166,5.05532 -6.06639,17.69363 0.50552,17.18809 6.57193,-0.50554 18.19915,10.61617 15.67151,-1.01105 -2.52767,-11.62725 4.04423,-9.09959 1.01105,-20.72682 -3.03318,-11.62724 5.56085,-26.28766 0.50554,-29.82639 -5.05532,-3.53872 -16.17702,-8.08851 -16.17702,-13.14383 0,-5.05532 19.2102,-3.53872 4.54977,-15.16595 -14.66043,-11.62724 -29.82637,-6.57192 -29.82637,-6.57192 0,0 -17.18808,5.05532 -26.79319,19.71575 z"
       id="path168" />
  </g>
</svg>
